<svg xmlns="http://www.w3.org/2000/svg" xmlns:xlink="http://www.w3.org/1999/xlink" viewBox="0 0 352.36 323.09"><defs><style>.cls-1{fill:url(#New_Gradient_Swatch_copy_84);}</style><linearGradient id="New_Gradient_Swatch_copy_84" y1="161.55" x2="352.36" y2="161.55" gradientUnits="userSpaceOnUse"><stop offset="0" stop-color="#2e3283"/><stop offset="1" stop-color="#29235c"/></linearGradient></defs><g id="Calque_2" data-name="Calque 2"><g id="Layer_1" data-name="Layer 1"><path class="cls-1" d="M350.14,189.71c-2.57-8.75-7.53-16-15.67-19.24A19.2,19.2,0,0,0,323,167.34c-7.7.42-15.69,3.51-21.05,10.65-6,9.42-6.53,17-9.85,27.77-3,9.68-10.49,16.24-18.26,20.4-11.56,6.2-23.84,7.72-36.31,6.33a46.8,46.8,0,0,1-17.18-5.69,66,66,0,0,1-14.18-10.1c-11.43-10.52-17.47-22.84-22.59-33.52A184.52,184.52,0,0,1,170,143.8c2.47,7.65,5.42,15.72,9,24.07q2.14,5,4.34,9.68c2.39-5.06,5.84-12.09,10.09-20.4,6.77-13.28,13.94-26.27,21.68-38.75,11-16.89,23.14-32.64,36.92-46.15a175.13,175.13,0,0,1,16.74-13.43c5.63-4,10.2-11.29,11.92-18.91a29.1,29.1,0,0,0,.46-12.62A27.26,27.26,0,0,0,278,15.53C274.46,8.77,269.15,2.82,262.53,1a23,23,0,0,0-20,3.19c-15.25,10.72-29.38,24.28-42,39.25-12.74,15.14-23.91,32.17-34.36,49.7-14.07,23.6-26.08,48.8-38,74.11C123.2,178,118.17,188.82,113,199.53q-1.81,3.75-3.64,7.49-.06-14.36-.21-28.71-.14-14-.34-28c-.12-8.46,0-17-.81-25.44-.63-6.23-1.1-12.47-3-18.33C95.29,76.93,71.69,64.51,46.89,69.66c-5.43,1.13-10.68,4.11-15.61,6.9C22.6,81.45,15.1,89.27,7.61,96.37a24.8,24.8,0,0,0-5.36,10.18A28.2,28.2,0,0,0,0,118.74c0,7.76,2.82,17,7.59,22.38,5,5.53,11.44,9.64,18.34,9.27l6.9-1.13a25.3,25.3,0,0,0,11.22-7.88,83.62,83.62,0,0,1,11.73-9.16l.87-.34c.4,7.69.25,15.47.36,23.12q.22,16.55.36,33.1.26,33.09.16,66.19-.06,18.65-.24,37.29c-.1,11,5.1,21.84,13,27.16a26.71,26.71,0,0,0,22.1,3.33c8.5-2.3,16.12-8.1,22.53-15.15a60.73,60.73,0,0,0,5.88-7.84q4.88-7.53,9.5-15.3c6.67-11.24,12.88-22.87,18.84-34.68l.09.12a125.44,125.44,0,0,0,14.57,18.64c35,36,83.39,47.81,126.68,28.27,27.64-12.47,52.34-38.85,60.12-73.54C352.89,212.33,353.17,200,350.14,189.71Z"/></g></g></svg>